<svg xmlns="http://www.w3.org/2000/svg" width="500" height="800" fill="none">
  <path
    d="M12 2 9.5 6 5 4 7.5 8 3 8.5 6.5 11 4 15 8.5 13 10 17 12 13.5 14 17 15.5 13 20 15 17.5 11 21 8.5 16.5 8 19 4 14.5 6Z"
    transform="translate(50,60) rotate(15,12,10) scale(1.3)"
    fill="#c0854a"
    opacity=".5"
  />
  <path
    d="M12 2 9.5 6 5 4 7.5 8 3 8.5 6.5 11 4 15 8.5 13 10 17 12 13.5 14 17 15.5 13 20 15 17.5 11 21 8.5 16.5 8 19 4 14.5 6Z"
    transform="translate(350,120) rotate(-20,12,10) scale(0.8)"
    fill="#8b4f1f"
    opacity=".4"
  />
  <path
    d="M12 2 9.5 6 5 4 7.5 8 3 8.5 6.5 11 4 15 8.5 13 10 17 12 13.5 14 17 15.5 13 20 15 17.5 11 21 8.5 16.5 8 19 4 14.5 6Z"
    transform="translate(180,250) rotate(40,12,10) scale(1.1)"
    fill="#d4a574"
    opacity=".45"
  />
  <path
    d="M12 2 9.5 6 5 4 7.5 8 3 8.5 6.5 11 4 15 8.5 13 10 17 12 13.5 14 17 15.5 13 20 15 17.5 11 21 8.5 16.5 8 19 4 14.5 6Z"
    transform="translate(420,380) rotate(-10,12,10) scale(1.0)"
    fill="#a8652d"
    opacity=".35"
  />
  <path
    d="M12 2 9.5 6 5 4 7.5 8 3 8.5 6.5 11 4 15 8.5 13 10 17 12 13.5 14 17 15.5 13 20 15 17.5 11 21 8.5 16.5 8 19 4 14.5 6Z"
    transform="translate(80,480) rotate(60,12,10) scale(0.7)"
    fill="#8b4f1f"
    opacity=".5"
  />
  <path
    d="M12 2 9.5 6 5 4 7.5 8 3 8.5 6.5 11 4 15 8.5 13 10 17 12 13.5 14 17 15.5 13 20 15 17.5 11 21 8.5 16.5 8 19 4 14.5 6Z"
    transform="translate(280,550) rotate(-35,12,10) scale(1.4)"
    fill="#c0854a"
    opacity=".3"
  />
  <path
    d="M12 2 9.5 6 5 4 7.5 8 3 8.5 6.5 11 4 15 8.5 13 10 17 12 13.5 14 17 15.5 13 20 15 17.5 11 21 8.5 16.5 8 19 4 14.5 6Z"
    transform="translate(450,650) rotate(25,12,10) scale(0.9)"
    fill="#d4a574"
    opacity=".4"
  />
  <path
    d="M12 2 9.5 6 5 4 7.5 8 3 8.5 6.5 11 4 15 8.5 13 10 17 12 13.5 14 17 15.5 13 20 15 17.5 11 21 8.5 16.5 8 19 4 14.5 6Z"
    transform="translate(150,720) rotate(-50,12,10) scale(1.0)"
    fill="#a8652d"
    opacity=".45"
  />
</svg>
